%TF.GenerationSoftware,KiCad,Pcbnew,5.1.6-c6e7f7d~87~ubuntu18.04.1*%
%TF.CreationDate,2021-09-19T14:11:29+09:00*%
%TF.ProjectId,m922,6d393232-2e6b-4696-9361-645f70636258,rev?*%
%TF.SameCoordinates,Original*%
%TF.FileFunction,Copper,L1,Top*%
%TF.FilePolarity,Positive*%
%FSLAX46Y46*%
G04 Gerber Fmt 4.6, Leading zero omitted, Abs format (unit mm)*
G04 Created by KiCad (PCBNEW 5.1.6-c6e7f7d~87~ubuntu18.04.1) date 2021-09-19 14:11:29*
%MOMM*%
%LPD*%
G01*
G04 APERTURE LIST*
%TA.AperFunction,SMDPad,CuDef*%
%ADD10R,1.500000X1.500000*%
%TD*%
%TA.AperFunction,SMDPad,CuDef*%
%ADD11C,0.100000*%
%TD*%
%TA.AperFunction,ComponentPad*%
%ADD12C,1.500000*%
%TD*%
%TA.AperFunction,SMDPad,CuDef*%
%ADD13R,1.875000X1.050000*%
%TD*%
%TA.AperFunction,ComponentPad*%
%ADD14O,2.000000X1.700000*%
%TD*%
%TA.AperFunction,Conductor*%
%ADD15C,1.000000*%
%TD*%
%TA.AperFunction,Conductor*%
%ADD16C,0.500000*%
%TD*%
G04 APERTURE END LIST*
D10*
%TO.P,REF\u002A\u002A,1*%
%TO.N,Net-(C1-Pad2)*%
X151892000Y-84328000D03*
%TD*%
%TO.P,REF\u002A\u002A,1*%
%TO.N,Net-(C1-Pad2)*%
X153670000Y-84328000D03*
%TD*%
%TO.P,REF\u002A\u002A,1*%
%TO.N,Net-(C1-Pad1)*%
X153670000Y-87122000D03*
%TD*%
%TO.P,TP1,1*%
%TO.N,Net-(C1-Pad1)*%
X151892000Y-87122000D03*
%TD*%
%TA.AperFunction,SMDPad,CuDef*%
D11*
%TO.P,J1,1*%
%TO.N,Net-(D1-Pad4)*%
G36*
X118120000Y-83947000D02*
G01*
X113020000Y-83947000D01*
X113020000Y-82423000D01*
X118120000Y-82423000D01*
X118120000Y-83947000D01*
G37*
%TD.AperFunction*%
%TA.AperFunction,SMDPad,CuDef*%
%TO.P,J1,2*%
%TO.N,Net-(D1-Pad2)*%
G36*
X118120000Y-89027000D02*
G01*
X113020000Y-89027000D01*
X113020000Y-87503000D01*
X118120000Y-87503000D01*
X118120000Y-89027000D01*
G37*
%TD.AperFunction*%
D12*
%TO.P,J1,1*%
%TO.N,Net-(D1-Pad4)*%
X114300000Y-83185000D03*
%TO.P,J1,2*%
%TO.N,Net-(D1-Pad2)*%
X114300000Y-88265000D03*
%TD*%
%TO.P,C1,1*%
%TO.N,Net-(C1-Pad1)*%
%TA.AperFunction,SMDPad,CuDef*%
G36*
G01*
X135880000Y-87507500D02*
X134630000Y-87507500D01*
G75*
G02*
X134380000Y-87257500I0J250000D01*
G01*
X134380000Y-86332500D01*
G75*
G02*
X134630000Y-86082500I250000J0D01*
G01*
X135880000Y-86082500D01*
G75*
G02*
X136130000Y-86332500I0J-250000D01*
G01*
X136130000Y-87257500D01*
G75*
G02*
X135880000Y-87507500I-250000J0D01*
G01*
G37*
%TD.AperFunction*%
%TO.P,C1,2*%
%TO.N,Net-(C1-Pad2)*%
%TA.AperFunction,SMDPad,CuDef*%
G36*
G01*
X135880000Y-84532500D02*
X134630000Y-84532500D01*
G75*
G02*
X134380000Y-84282500I0J250000D01*
G01*
X134380000Y-83357500D01*
G75*
G02*
X134630000Y-83107500I250000J0D01*
G01*
X135880000Y-83107500D01*
G75*
G02*
X136130000Y-83357500I0J-250000D01*
G01*
X136130000Y-84282500D01*
G75*
G02*
X135880000Y-84532500I-250000J0D01*
G01*
G37*
%TD.AperFunction*%
%TD*%
D13*
%TO.P,D1,4*%
%TO.N,Net-(D1-Pad4)*%
X126877500Y-84128001D03*
%TO.P,D1,2*%
%TO.N,Net-(D1-Pad2)*%
X126877500Y-86628001D03*
%TO.P,D1,1*%
%TO.N,Net-(C1-Pad1)*%
X132202500Y-86628001D03*
%TO.P,D1,3*%
%TO.N,Net-(C1-Pad2)*%
X132202500Y-84128001D03*
%TD*%
%TO.P,J2,1*%
%TO.N,Net-(C1-Pad1)*%
%TA.AperFunction,ComponentPad*%
G36*
G01*
X147435000Y-87845000D02*
X145935000Y-87845000D01*
G75*
G02*
X145685000Y-87595000I0J250000D01*
G01*
X145685000Y-86395000D01*
G75*
G02*
X145935000Y-86145000I250000J0D01*
G01*
X147435000Y-86145000D01*
G75*
G02*
X147685000Y-86395000I0J-250000D01*
G01*
X147685000Y-87595000D01*
G75*
G02*
X147435000Y-87845000I-250000J0D01*
G01*
G37*
%TD.AperFunction*%
D14*
%TO.P,J2,2*%
%TO.N,Net-(C1-Pad2)*%
X146685000Y-84495000D03*
%TD*%
D15*
%TO.N,Net-(C1-Pad1)*%
X135088001Y-86628001D02*
X135255000Y-86795000D01*
D16*
X132202500Y-86628001D02*
X135088001Y-86628001D01*
D15*
X135255000Y-90170000D02*
X144260010Y-90170000D01*
X135255000Y-86795000D02*
X135255000Y-89916000D01*
X144260010Y-90170000D02*
X146685000Y-86995000D01*
X153543000Y-86995000D02*
X153670000Y-87122000D01*
X146685000Y-86995000D02*
X153543000Y-86995000D01*
%TO.N,Net-(D1-Pad2)*%
X126746000Y-86759501D02*
X126877500Y-86628001D01*
X126746000Y-89916000D02*
X126746000Y-86759501D01*
X116586000Y-90170000D02*
X126746000Y-90170000D01*
X115431010Y-88761010D02*
X116586000Y-90170000D01*
%TO.N,Net-(D1-Pad4)*%
X127000000Y-81280000D02*
X126877500Y-84128001D01*
X117475000Y-81280000D02*
X127000000Y-81280000D01*
X115570000Y-83185000D02*
X117475000Y-81280000D01*
%TO.N,Net-(C1-Pad2)*%
X134946999Y-84128001D02*
X135255000Y-83820000D01*
D16*
X132202500Y-84128001D02*
X134946999Y-84128001D01*
D15*
X135255000Y-83820000D02*
X135255000Y-81915000D01*
X135255000Y-81915000D02*
X135890000Y-81280000D01*
X143470000Y-81280000D02*
X146685000Y-84495000D01*
X135890000Y-81280000D02*
X143470000Y-81280000D01*
X153503000Y-84495000D02*
X153670000Y-84328000D01*
X146685000Y-84495000D02*
X153503000Y-84495000D01*
%TD*%
M02*
