%TF.GenerationSoftware,KiCad,Pcbnew,5.1.6-c6e7f7d~87~ubuntu18.04.1*%
%TF.CreationDate,2021-09-19T14:11:29+09:00*%
%TF.ProjectId,m922,6d393232-2e6b-4696-9361-645f70636258,rev?*%
%TF.SameCoordinates,Original*%
%TF.FileFunction,Legend,Bot*%
%TF.FilePolarity,Positive*%
%FSLAX46Y46*%
G04 Gerber Fmt 4.6, Leading zero omitted, Abs format (unit mm)*
G04 Created by KiCad (PCBNEW 5.1.6-c6e7f7d~87~ubuntu18.04.1) date 2021-09-19 14:11:29*
%MOMM*%
%LPD*%
G01*
G04 APERTURE LIST*
%ADD10C,0.250000*%
G04 APERTURE END LIST*
D10*
X136182857Y-83248571D02*
X136182857Y-81748571D01*
X136182857Y-82462857D02*
X135325714Y-82462857D01*
X135325714Y-83248571D02*
X135325714Y-81748571D01*
X134325714Y-81748571D02*
X134040000Y-81748571D01*
X133897142Y-81820000D01*
X133754285Y-81962857D01*
X133682857Y-82248571D01*
X133682857Y-82748571D01*
X133754285Y-83034285D01*
X133897142Y-83177142D01*
X134040000Y-83248571D01*
X134325714Y-83248571D01*
X134468571Y-83177142D01*
X134611428Y-83034285D01*
X134682857Y-82748571D01*
X134682857Y-82248571D01*
X134611428Y-81962857D01*
X134468571Y-81820000D01*
X134325714Y-81748571D01*
X132325714Y-83248571D02*
X133040000Y-83248571D01*
X133040000Y-81748571D01*
X131111428Y-83248571D02*
X131825714Y-83248571D01*
X131825714Y-81748571D01*
X130325714Y-82534285D02*
X130325714Y-83248571D01*
X130825714Y-81748571D02*
X130325714Y-82534285D01*
X129825714Y-81748571D01*
X128182857Y-83248571D02*
X128182857Y-81748571D01*
X127682857Y-82820000D01*
X127182857Y-81748571D01*
X127182857Y-83248571D01*
X126397142Y-83248571D02*
X126111428Y-83248571D01*
X125968571Y-83177142D01*
X125897142Y-83105714D01*
X125754285Y-82891428D01*
X125682857Y-82605714D01*
X125682857Y-82034285D01*
X125754285Y-81891428D01*
X125825714Y-81820000D01*
X125968571Y-81748571D01*
X126254285Y-81748571D01*
X126397142Y-81820000D01*
X126468571Y-81891428D01*
X126540000Y-82034285D01*
X126540000Y-82391428D01*
X126468571Y-82534285D01*
X126397142Y-82605714D01*
X126254285Y-82677142D01*
X125968571Y-82677142D01*
X125825714Y-82605714D01*
X125754285Y-82534285D01*
X125682857Y-82391428D01*
X125111428Y-81891428D02*
X125040000Y-81820000D01*
X124897142Y-81748571D01*
X124540000Y-81748571D01*
X124397142Y-81820000D01*
X124325714Y-81891428D01*
X124254285Y-82034285D01*
X124254285Y-82177142D01*
X124325714Y-82391428D01*
X125182857Y-83248571D01*
X124254285Y-83248571D01*
X123682857Y-81891428D02*
X123611428Y-81820000D01*
X123468571Y-81748571D01*
X123111428Y-81748571D01*
X122968571Y-81820000D01*
X122897142Y-81891428D01*
X122825714Y-82034285D01*
X122825714Y-82177142D01*
X122897142Y-82391428D01*
X123754285Y-83248571D01*
X122825714Y-83248571D01*
X132754285Y-84391428D02*
X132682857Y-84320000D01*
X132540000Y-84248571D01*
X132182857Y-84248571D01*
X132040000Y-84320000D01*
X131968571Y-84391428D01*
X131897142Y-84534285D01*
X131897142Y-84677142D01*
X131968571Y-84891428D01*
X132825714Y-85748571D01*
X131897142Y-85748571D01*
X130468571Y-85748571D02*
X131325714Y-85748571D01*
X130897142Y-85748571D02*
X130897142Y-84248571D01*
X131040000Y-84462857D01*
X131182857Y-84605714D01*
X131325714Y-84677142D01*
X129540000Y-84248571D02*
X129397142Y-84248571D01*
X129254285Y-84320000D01*
X129182857Y-84391428D01*
X129111428Y-84534285D01*
X129040000Y-84820000D01*
X129040000Y-85177142D01*
X129111428Y-85462857D01*
X129182857Y-85605714D01*
X129254285Y-85677142D01*
X129397142Y-85748571D01*
X129540000Y-85748571D01*
X129682857Y-85677142D01*
X129754285Y-85605714D01*
X129825714Y-85462857D01*
X129897142Y-85177142D01*
X129897142Y-84820000D01*
X129825714Y-84534285D01*
X129754285Y-84391428D01*
X129682857Y-84320000D01*
X129540000Y-84248571D01*
X128325714Y-85748571D02*
X128040000Y-85748571D01*
X127897142Y-85677142D01*
X127825714Y-85605714D01*
X127682857Y-85391428D01*
X127611428Y-85105714D01*
X127611428Y-84534285D01*
X127682857Y-84391428D01*
X127754285Y-84320000D01*
X127897142Y-84248571D01*
X128182857Y-84248571D01*
X128325714Y-84320000D01*
X128397142Y-84391428D01*
X128468571Y-84534285D01*
X128468571Y-84891428D01*
X128397142Y-85034285D01*
X128325714Y-85105714D01*
X128182857Y-85177142D01*
X127897142Y-85177142D01*
X127754285Y-85105714D01*
X127682857Y-85034285D01*
X127611428Y-84891428D01*
X127040000Y-85320000D02*
X126325714Y-85320000D01*
X127182857Y-85748571D02*
X126682857Y-84248571D01*
X126182857Y-85748571D01*
M02*
