%TF.GenerationSoftware,KiCad,Pcbnew,5.1.6-c6e7f7d~87~ubuntu18.04.1*%
%TF.CreationDate,2021-09-19T14:11:29+09:00*%
%TF.ProjectId,m922,6d393232-2e6b-4696-9361-645f70636258,rev?*%
%TF.SameCoordinates,Original*%
%TF.FileFunction,Soldermask,Top*%
%TF.FilePolarity,Negative*%
%FSLAX46Y46*%
G04 Gerber Fmt 4.6, Leading zero omitted, Abs format (unit mm)*
G04 Created by KiCad (PCBNEW 5.1.6-c6e7f7d~87~ubuntu18.04.1) date 2021-09-19 14:11:29*
%MOMM*%
%LPD*%
G01*
G04 APERTURE LIST*
%ADD10R,1.500000X1.500000*%
%ADD11C,0.100000*%
%ADD12C,1.500000*%
%ADD13C,2.700000*%
%ADD14R,1.875000X1.050000*%
%ADD15O,2.000000X1.700000*%
G04 APERTURE END LIST*
D10*
%TO.C,REF\u002A\u002A*%
X151892000Y-84328000D03*
%TD*%
%TO.C,REF\u002A\u002A*%
X153670000Y-84328000D03*
%TD*%
%TO.C,REF\u002A\u002A*%
X153670000Y-87122000D03*
%TD*%
%TO.C,TP1*%
X151892000Y-87122000D03*
%TD*%
D11*
%TO.C,J1*%
G36*
X118120000Y-83947000D02*
G01*
X113020000Y-83947000D01*
X113020000Y-82423000D01*
X118120000Y-82423000D01*
X118120000Y-83947000D01*
G37*
G36*
X118120000Y-89027000D02*
G01*
X113020000Y-89027000D01*
X113020000Y-87503000D01*
X118120000Y-87503000D01*
X118120000Y-89027000D01*
G37*
D12*
X114300000Y-83185000D03*
X114300000Y-88265000D03*
%TD*%
D13*
%TO.C,REF\u002A\u002A*%
X121920000Y-85725000D03*
%TD*%
%TO.C,REF\u002A\u002A*%
X139700000Y-85725000D03*
%TD*%
%TO.C,C1*%
G36*
G01*
X135880000Y-87507500D02*
X134630000Y-87507500D01*
G75*
G02*
X134380000Y-87257500I0J250000D01*
G01*
X134380000Y-86332500D01*
G75*
G02*
X134630000Y-86082500I250000J0D01*
G01*
X135880000Y-86082500D01*
G75*
G02*
X136130000Y-86332500I0J-250000D01*
G01*
X136130000Y-87257500D01*
G75*
G02*
X135880000Y-87507500I-250000J0D01*
G01*
G37*
G36*
G01*
X135880000Y-84532500D02*
X134630000Y-84532500D01*
G75*
G02*
X134380000Y-84282500I0J250000D01*
G01*
X134380000Y-83357500D01*
G75*
G02*
X134630000Y-83107500I250000J0D01*
G01*
X135880000Y-83107500D01*
G75*
G02*
X136130000Y-83357500I0J-250000D01*
G01*
X136130000Y-84282500D01*
G75*
G02*
X135880000Y-84532500I-250000J0D01*
G01*
G37*
%TD*%
D14*
%TO.C,D1*%
X126877500Y-84128001D03*
X126877500Y-86628001D03*
X132202500Y-86628001D03*
X132202500Y-84128001D03*
%TD*%
%TO.C,J2*%
G36*
G01*
X147435000Y-87845000D02*
X145935000Y-87845000D01*
G75*
G02*
X145685000Y-87595000I0J250000D01*
G01*
X145685000Y-86395000D01*
G75*
G02*
X145935000Y-86145000I250000J0D01*
G01*
X147435000Y-86145000D01*
G75*
G02*
X147685000Y-86395000I0J-250000D01*
G01*
X147685000Y-87595000D01*
G75*
G02*
X147435000Y-87845000I-250000J0D01*
G01*
G37*
D15*
X146685000Y-84495000D03*
%TD*%
M02*
